<?xml version="1.0" encoding="utf-8"?>
<!-- Generator: Adobe Illustrator 27.6.1, SVG Export Plug-In . SVG Version: 6.00 Build 0)  -->
<svg version="1.1" id="Layer_1" xmlns="http://www.w3.org/2000/svg" xmlns:xlink="http://www.w3.org/1999/xlink" x="0px" y="0px"
	 viewBox="0 0 50 50" style="enable-background:new 0 0 50 50;" xml:space="preserve">
<style type="text/css">
	.st0{fill:#FFFFFF;}
</style>
<path class="st0" d="M25.6,26h6.3l-0.6,6.7l-5.7,1.6v5.4l10.5-2.9l0.1-0.9l1.2-13.6l0.1-1.4H25.6V26L25.6,26z M25.6,15.6L25.6,15.6
	l12.3,0l0.1-1.2l0.2-2.6l0.1-1.4H25.6V15.6L25.6,15.6z"/>
<g id="c133de6af664cd4f011a55de6b001b19">
	<path d="M45.8,1.7l-3.9,42.2L25,48.4L8.1,43.9L4.2,1.7H45.8z"/>
</g>
<g id="TvPZEl.tif">
	
		<image style="overflow:visible;" width="982" height="1238" id="Layer_0" xlink:href="B0A9444385FF91DD.png"  transform="matrix(7.790224e-02 0 0 7.790224e-02 -220.5 238.057)">
	</image>
</g>
<g>
	<polygon class="st0" points="19.2,10 23.5,10 23.5,39.9 13.6,37 13,29.2 16.7,29.5 16.7,32.5 20,33.4 	"/>
	<polygon class="st0" points="25.8,10 38.2,10 37.8,15.1 30.7,15.1 30.4,20.7 37.2,20.7 36.1,37 25.8,40 25.8,34.8 32,32.9 
		32.4,25.5 25.7,26.1 	"/>
</g>
</svg>
