<svg version="1.1" id="Layer_1" xmlns="http://www.w3.org/2000/svg" xmlns:xlink="http://www.w3.org/1999/xlink" x="0px" y="0px" viewBox="0 0 918 391" style="enable-background:new 0 0 918 391;" xml:space="preserve" class="m-hide">
    <defs>
        <style>
            @keyframes text-ani {
            from {stroke-dashoffset: 10912;}
            to {stroke-dashoffset: 0;}
        } 
        .visual-text-mask {fill:#fff;}
        .visual-text {fill:none;stroke:#101010;stroke-width:33;stroke-linecap:round;stroke-linejoin:round;stroke-miterlimit:10;stroke-dasharray: 10912;animation: text-ani 1s 8s;}
        </style>
        <mask id="text-mask">
            <g>
                <path class="visual-text-mask" d="M18,48.5h20.5l19.2,78.1h1l20.4-78.1h18.8l20.5,78.2h0.9l19.2-78.2H159l-29.9,106.1h-18.9L88.9,80h-0.7 l-21.4,74.6H47.9L18,48.5z"/>
                <path class="visual-text-mask" d="M252.4,48.5H293c23,0,34.4,11.7,34.4,27.5c0,12.9-8.2,20.1-18.6,22.6v1c11.3,0.6,22.7,10,22.7,26.1 c0,16.6-11.9,28.9-36.2,28.9h-42.9V48.5z M308.4,78.4c0-8.2-5.9-14.1-17.3-14.1h-19.6v29.3h19.2C300.7,93.6,308.4,87.7,308.4,78.4z M312.2,124.2c0-9.5-7.5-16.8-19.3-16.8h-21.4v31.2h20.9C306.3,138.6,312.2,132.6,312.2,124.2z"/>
                <path class="visual-text-mask" d="M376.6,154.5v-106h36.6c31.6,0,50.8,19.9,50.8,52.9c0,33.1-19.2,53.2-51.4,53.2h-36V154.5z M411.6,138 c22.1,0,33.4-12.2,33.4-36.6S433.8,65,412.2,65h-16.6v73H411.6z"/>
                <path class="visual-text-mask" d="M477.9,48.5h69v16h-50v29h46.3v16H497v29h50.2v16.1h-69.3L477.9,48.5L477.9,48.5z"/>
                <path class="visual-text-mask" d="M599.9,63.3c-12,0-19.3,5.9-19.3,13.8c0,8.9,9.4,12.6,18.2,14.6l10,2.6c15.8,3.7,31.1,12,31.1,30.5 c0,18.6-14.6,31.3-40.1,31.3c-24.8,0-40.3-11.9-41.2-32.8h18.8c0.9,11.1,10.3,16.6,22.3,16.6c12.6,0,21.2-6.2,21.2-15.2 c0-8.3-7.8-11.9-19.2-14.8l-12-3.1c-17.4-4.5-28.3-13.3-28.3-28.6c0-18.8,16.7-31.2,39-31.2c22.6,0,37.8,12.7,38.1,30.6h-18.3 C619.1,68.5,611.3,63.3,599.9,63.3z"/>
                <path class="visual-text-mask" d="M671.6,154.5h-19v-106h19V154.5z"/>
                <path class="visual-text-mask" d="M734.4,64.2c-17.1,0-29.4,13.3-29.4,37.2c0,24.2,12.2,37.5,29.9,37.5c16,0,26.2-9.7,26.5-24.8h-24.6V99h43.1 v12.7c0,27.2-18.8,44.2-45,44.2c-29.3,0-49.1-20.8-49.1-54.5c0-34,20.7-54.5,48.5-54.5c23.4,0,41.5,14.5,44.7,35.3h-19.5 C756,71,747.3,64.2,734.4,64.2z"/>
                <path class="visual-text-mask" d="M881.2,154.5h-17L814,82h-0.9v72.5h-19v-106h17.3l50,72.5h1V48.5h18.9L881.2,154.5L881.2,154.5z"/>
                <path class="visual-text-mask" d="M60.5,195.5h39.8c24.3,0,37.4,14.8,37.4,35.2s-13.2,35-37.6,35H79.5v35.9h-19V195.5z M97.4,250 c14.4,0,20.8-8.1,20.8-19.3c0-11.4-6.4-19.2-20.8-19.2H79.5V250H97.4z"/>
                <path class="visual-text-mask" d="M196.1,303c-27.8,0-48.6-20.4-48.6-54.5c0-34.3,20.8-54.5,48.6-54.5s48.6,20.2,48.6,54.5S223.9,303,196.1,303z M196.1,211.2c-17.3,0-29.4,13.2-29.4,37.4s12.2,37.4,29.4,37.4s29.4-13.2,29.4-37.4S213.4,211.2,196.1,211.2z"/>
                <path class="visual-text-mask" d="M258.7,195.5h39.8c24.3,0,37.4,13.6,37.4,33.8c0,14.4-6.6,25.1-19,30.2l22.9,42h-21.2l-20.8-38.8h-19.9v38.8 h-19v-106H258.7z M295.6,246.7c14.4,0,20.8-6.2,20.8-17.4s-6.4-17.9-20.8-17.9h-17.9v35.3L295.6,246.7L295.6,246.7z"/>
                <path class="visual-text-mask" d="M344.6,195.5h84.5v16h-32.7v90.1h-19v-90.1h-32.8V195.5z"/>
                <path class="visual-text-mask" d="M441.1,195.5h68v16h-48.9v29h44.2v16h-44.2v45.1h-19V195.5H441.1z"/>
                <path class="visual-text-mask" d="M568.2,303c-27.8,0-48.6-20.4-48.6-54.5c0-34.3,20.8-54.5,48.6-54.5s48.6,20.2,48.6,54.5S596,303,568.2,303z M568.2,211.2c-17.3,0-29.4,13.2-29.4,37.4S551,286,568.2,286s29.4-13.2,29.4-37.4S585.4,211.2,568.2,211.2z"/>
                <path class="visual-text-mask" d="M630.8,195.5h19v89.9h46.9v16.1h-65.9V195.5z"/>
                <path class="visual-text-mask" d="M728,301.5h-19v-106h19V301.5z"/>
                <path class="visual-text-mask" d="M790.7,303c-27.8,0-48.6-20.4-48.6-54.5c0-34.3,20.8-54.5,48.6-54.5s48.6,20.2,48.6,54.5S818.6,303,790.7,303z M790.7,211.2c-17.3,0-29.4,13.2-29.4,37.4s12.2,37.4,29.4,37.4s29.4-13.2,29.4-37.4S808,211.2,790.7,211.2z"/>
                <path class="visual-text-mask" d="M168.1,48.5h69v16h-50v29h46.3v16h-46.3v29h50.2v16.1H168V48.5H168.1z"/>
            </g>
        </mask>
    </defs>
    <g mask="url(#text-mask)">
        <path class="visual-text" d="M23.8,42.6l28.1,119.1L85.2,38.5l27.2,125.4l34.4-119.8l4.5,4.1l76.9,1.1l-57.5-12.5l-0.1,125l-2.5-13.3 l64.7-0.4l-78.7-24V98l69.6,2.1l13.7-72.8l18.6,5.1l-2,124.8L249.5,54l48.9,0.9c0,0,21.4,8.2,21.4,22s-2.8,22.4-60.5,22.5h45.8 c0,0,21.4,9.6,17.9,29.4s-62.9,16.9-62.9,16.9L380.3,20.6l-2,144.8l-1.7-110l50.6,1.4c0,0,26.5,15.1,26.2,46.3 c-0.3,31.3-15.3,39.3-25.1,42.1s-45.2-0.6-45.2-0.6l76.7-121.1l0.4,25.3l82.5,0.8l-62-9.7v43.5V115v35.9H541l-56.7-4.8l-7.4-46 l58.8,0.4l18.1-63.7l45.2-6.3l32.2,4.8l1.9,40.9c0,0-11.9-22.3-30.5-22s-31.3,10.4-29.4,19.3c1.9,8.9,0.9,21.6,30.9,28.1 s28.8,29.4,24.6,36.4s-34.3,15.2-47,6.2c-12.6-8.9-19.2-22.3-19.2-22.3l89.9-95.6l11.5-1.5v135.1l-4.8-145.1l99.7,18.6l7.8,42.4 c0,0-13.9-28.7-40.4-17.1s-31.4,24.2-30.6,48s13.7,38.6,30.6,41.1s32-4.6,36.7-11.5c4.7-6.8,9-25.7,9-25.7l-35.4-4.8l45.7,71.4 l16.4-3.6v-127L872,164.1L871.3,47L63.6,174.4L63,305.6L49.7,200.9l61.1,2.2c0,0,15.2,10.6,12.6,30.4s-13.8,27.1-55.9,23.7l110-85.4 l18.5,29.6c0,0-39.2,7.9-40.3,47.1c-1.1,39.2,16.3,45.3,38.2,46.7c21.8,1.4,44.6-23.2,43.8-39.3s-11.2-51.9-37.8-56.7
        S262,179,262,179l-0.7,127.1L253.6,200l52.9,3.6c0,0,21.2,6.4,18.7,24.3s-57.5,23.8-57.5,23.8l35.4-3.2l28.7,57.6l-5.7-109l91.3,4.4 l-33.7-7.5l1.7,116.2l40.7-113.7l79.8,0.4l-60.9-6.4v111l-16-48.2l69.9-4.8L487,205.9l73.4-31l7.7,27.3c0,0-28.3,4.8-33.6,19.4 c-5.4,14.6-6.5,38.3,1.9,51.2c8.4,12.8,15.3,19.8,33.2,20.4s28.2-7,35.4-29c7.3-22,3.5-35.7-7.5-45.2c-10.9-9.5-26.1-18.2-26.1-18.2 l67.9-24.5l1.1,115.5l48.3,0.8l5.9-105.5l21.2,1.7l2.6,115l4-130.7l69.6,30.3c0,0-19.1,0.3-30.7,15.3c-11.7,15.1-9.7,36.6-4.7,47.2 s14.9,27.9,37.2,29.2s33.5-17.2,35.3-30.8c1.8-13.7,9-40.2-22.8-62"/>
    </g>
</svg>