<?xml version="1.0" encoding="utf-8"?>
<!-- Generator: Adobe Illustrator 27.7.0, SVG Export Plug-In . SVG Version: 6.00 Build 0)  -->
<svg version="1.1" id="Layer_1" xmlns="http://www.w3.org/2000/svg" xmlns:xlink="http://www.w3.org/1999/xlink" x="0px" y="0px"
	 viewBox="0 0 800 406" style="enable-background:new 0 0 800 406;" xml:space="preserve">
<style type="text/css">
	.st0{fill:#101010;}
</style>
<g>
	<path class="st0" d="M147.7,257.7v-106h36.6c31.6,0,50.8,19.9,50.8,52.9c0,33.1-19.2,53.2-51.4,53.2h-36V257.7z M182.7,241.2
		c22.1,0,33.4-12.2,33.4-36.6s-11.2-36.4-32.8-36.4h-16.6v73H182.7z"/>
	<path class="st0" d="M248.9,151.7h69v16h-50v29h46.3v16H268v29h50.2v16.1H249L248.9,151.7L248.9,151.7z"/>
	<path class="st0" d="M371,166.5c-12,0-19.3,5.9-19.3,13.8c0,8.9,9.4,12.6,18.2,14.6l10,2.6c15.8,3.7,31.1,12,31.1,30.5
		c0,18.6-14.6,31.3-40.1,31.3c-24.8,0-40.3-11.9-41.2-32.8h18.8c0.9,11.1,10.3,16.6,22.3,16.6c12.6,0,21.2-6.2,21.2-15.2
		c0-8.3-7.8-11.9-19.2-14.8l-12-3.1c-17.4-4.5-28.3-13.3-28.3-28.6c0-18.8,16.7-31.2,39-31.2c22.6,0,37.8,12.7,38.1,30.6h-18.3
		C390.1,171.7,382.3,166.5,371,166.5z"/>
	<path class="st0" d="M442.6,257.7h-19v-106h19V257.7z"/>
	<path class="st0" d="M505.5,167.4c-17.1,0-29.4,13.3-29.4,37.2c0,24.2,12.2,37.5,29.9,37.5c16,0,26.2-9.7,26.5-24.8h-24.6v-15.1
		H551v12.7c0,27.2-18.8,44.2-45,44.2c-29.3,0-49.1-20.8-49.1-54.5c0-34,20.7-54.5,48.5-54.5c23.4,0,41.5,14.5,44.7,35.3h-19.5
		C527,174.2,518.3,167.4,505.5,167.4z"/>
	<path class="st0" d="M652.2,257.7h-17L585,185.2h-0.9v72.5h-19v-106h17.3l50,72.5h1v-72.5h18.9L652.2,257.7L652.2,257.7z"/>
</g>
<g>
	<path class="st0" d="M10.6,290.7h39.8c24.3,0,37.4,14.8,37.4,35.2s-13.2,35-37.6,35H29.6v35.9h-19V290.7z M47.5,345.2
		c14.4,0,20.8-8.1,20.8-19.3c0-11.4-6.4-19.2-20.8-19.2H29.6v38.5H47.5z"/>
	<path class="st0" d="M146.2,398.2c-27.8,0-48.6-20.4-48.6-54.5c0-34.3,20.8-54.5,48.6-54.5s48.6,20.2,48.6,54.5
		S174,398.2,146.2,398.2z M146.2,306.4c-17.3,0-29.4,13.2-29.4,37.4s12.2,37.4,29.4,37.4s29.4-13.2,29.4-37.4
		C175.6,319.6,163.5,306.4,146.2,306.4z"/>
	<path class="st0" d="M208.8,290.7h39.8c24.3,0,37.4,13.6,37.4,33.8c0,14.4-6.6,25.1-19,30.2l22.9,42h-21.2l-20.8-38.8H228v38.8h-19
		v-106H208.8z M245.7,341.9c14.4,0,20.8-6.2,20.8-17.4s-6.4-17.9-20.8-17.9h-17.9v35.3H245.7L245.7,341.9z"/>
	<path class="st0" d="M294.7,290.7h84.5v16h-32.7v90.1h-19v-90.1h-32.8V290.7z"/>
	<path class="st0" d="M391.2,290.7h68v16h-48.9v29h44.2v16h-44.2v45.1h-19V290.7H391.2z"/>
	<path class="st0" d="M518.3,398.2c-27.8,0-48.6-20.4-48.6-54.5c0-34.3,20.8-54.5,48.6-54.5c27.8,0,48.6,20.2,48.6,54.5
		S546.1,398.2,518.3,398.2z M518.3,306.4c-17.3,0-29.4,13.2-29.4,37.4s12.2,37.4,29.4,37.4c17.2,0,29.4-13.2,29.4-37.4
		C547.7,319.6,535.5,306.4,518.3,306.4z"/>
	<path class="st0" d="M580.9,290.7h19v89.9h46.9v16.1h-65.9V290.7z"/>
	<path class="st0" d="M678.1,396.7h-19v-106h19V396.7z"/>
	<path class="st0" d="M740.8,398.2c-27.8,0-48.6-20.4-48.6-54.5c0-34.3,20.8-54.5,48.6-54.5c27.8,0,48.6,20.2,48.6,54.5
		S768.7,398.2,740.8,398.2z M740.8,306.4c-17.3,0-29.4,13.2-29.4,37.4s12.2,37.4,29.4,37.4c17.2,0,29.4-13.2,29.4-37.4
		C770.2,319.6,758.1,306.4,740.8,306.4z"/>
</g>
<g>
	<path class="st0" d="M243.2,11.7h20.5L283,89.8h1l20.4-78.1h18.8l20.5,78.2h0.9l19.2-78.2h20.5l-29.9,106.1h-18.9l-21.3-74.6h-0.7
		L292,117.8h-18.9L243.2,11.7z"/>
	<path class="st0" d="M477.6,11.7h40.6c23,0,34.4,11.7,34.4,27.5c0,12.9-8.2,20.1-18.6,22.6v1c11.3,0.6,22.7,10,22.7,26.1
		c0,16.6-11.9,28.9-36.2,28.9h-42.9V11.7z M533.7,41.6c0-8.2-5.9-14.1-17.3-14.1h-19.6v29.3H516C526,56.8,533.7,50.9,533.7,41.6z
		 M537.5,87.4c0-9.5-7.5-16.8-19.3-16.8h-21.4v31.2h20.9C531.5,101.8,537.5,95.8,537.5,87.4z"/>
	<path class="st0" d="M393.4,11.7h69v16h-50v29h46.3v16h-46.3v29h50.2v16.1h-69.3V11.7H393.4z"/>
</g>
</svg>
